<svg enable-background="new 0 0 24 24" fill="#e8eaed" version="1.1" viewBox="0 0 30 30" xmlns="http://www.w3.org/2000/svg">
 <g transform="translate(3.2629 4.1285)">
  <ellipse cx="12" cy="12" rx="11.212" ry="11.273" fill="#1e96d7" style="paint-order:stroke fill markers"/>
  <g transform="rotate(-11.579 9.483 14.063)" fill="#000" stroke="#1e96d7" stroke-width="2.3" style="paint-order:stroke fill markers">
   <path transform="rotate(-19.55)" d="m1.0191 4.9094q0.33708 0.36116 0.54174 0.78252 0.20466 0.40932 0.20466 0.83067 0 0.28893-0.10835 0.54174-0.10835 0.24077-0.30097 0.42136-0.18058 0.18058-0.43339 0.28893-0.25281 0.09631-0.55378 0.09631-0.27689 0-0.5297-0.084271-0.25281-0.09631-0.45747-0.27689-0.20466-0.18058-0.32505-0.44543-0.12039-0.26485-0.12039-0.62601 0-0.54174 0.30097-1.1437 0.31301-0.61397 0.9029-1.1196 0.60194-0.50563 1.4928-0.84271 0.89087-0.33708 2.0466-0.33708 1.1437 0 2.0225 0.33708 0.89087 0.33708 1.4928 0.9029 0.61397 0.55378 0.92698 1.2761 0.31301 0.72232 0.31301 1.5048 0 1.541-1.24 2.8893-0.50563 0.55378-1.1437 1.0594t-1.2039 1.0594q-0.55378 0.55378-0.93902 1.2159-0.3732 0.65009-0.3732 1.4928 0 0.16854 0.012039 0.39728 0.024077 0.2167 0.060194 0.45747-0.19262 0.07223-0.42136 0.10835-0.2167 0.02408-0.42136 0.02408-0.19262-0.75844-0.19262-1.4085 0-0.62601 0.1565-1.1316 0.1565-0.50563 0.39728-0.91494 0.25281-0.42136 0.55378-0.77048 0.31301-0.36116 0.62601-0.68621 0.3732-0.40932 0.69825-0.79456 0.32505-0.38524 0.55378-0.83067 0.24077-0.44543 0.3732-0.97514 0.14446-0.54174 0.14446-1.24 0-0.81863-0.19262-1.3845-0.19262-0.57786-0.54174-0.93902t-0.84271-0.51766q-0.48155-0.16854-1.0835-0.16854-0.72232 0-1.3604 0.22874t-1.0353 0.72232zm2.191 15.915q-0.34912 0-0.65009-0.12039-0.28893-0.12039-0.51766-0.33708t-0.36116-0.51766q-0.12039-0.30097-0.12039-0.66213 0-0.36116 0.13243-0.66213 0.13243-0.31301 0.34912-0.5297 0.22874-0.2167 0.5297-0.33708 0.30097-0.13243 0.65009-0.13243 0.33708 0 0.63805 0.12039t0.5297 0.33708 0.34912 0.51766q0.13243 0.30097 0.13243 0.66213 0 0.36116-0.13243 0.67417-0.12039 0.30097-0.34912 0.5297-0.22874 0.2167-0.5297 0.33708t-0.65009 0.12039z" aria-label="?"/>
   <path transform="rotate(10.156)" d="m12.466-0.25363q0.33708 0.36116 0.54174 0.78252 0.20466 0.40932 0.20466 0.83067 0 0.28893-0.10835 0.54174-0.10835 0.24077-0.30097 0.42136-0.18058 0.18058-0.43339 0.28893-0.25281 0.09631-0.55378 0.09631-0.27689 0-0.5297-0.084271-0.25281-0.09631-0.45747-0.27689-0.20466-0.18058-0.32505-0.44543-0.12039-0.26485-0.12039-0.62601 0-0.54174 0.30097-1.1437 0.31301-0.61397 0.9029-1.1196 0.60194-0.50563 1.4928-0.84271 0.89087-0.33708 2.0466-0.33708 1.1437 0 2.0225 0.33708 0.89086 0.33708 1.4928 0.9029 0.61398 0.55378 0.92698 1.2761t0.31301 1.5048q0 1.541-1.24 2.8893-0.50563 0.55378-1.1437 1.0594-0.63805 0.50563-1.2039 1.0594-0.55378 0.55378-0.93902 1.2159-0.3732 0.65009-0.3732 1.4928 0 0.16854 0.01204 0.39728 0.02408 0.2167 0.06019 0.45747-0.19262 0.07223-0.42136 0.10835-0.2167 0.02408-0.42136 0.02408-0.19262-0.75844-0.19262-1.4085 0-0.62601 0.1565-1.1316t0.39728-0.91494q0.25281-0.42136 0.55378-0.77048 0.31301-0.36116 0.62601-0.68621 0.3732-0.40932 0.69825-0.79456 0.32505-0.38524 0.55378-0.83067 0.24078-0.44543 0.3732-0.97514 0.14446-0.54174 0.14446-1.24 0-0.81863-0.19262-1.3845-0.19262-0.57786-0.54174-0.93902-0.34912-0.36116-0.84271-0.51766-0.48155-0.16854-1.0835-0.16854-0.72232 0-1.3604 0.22874-0.63805 0.22874-1.0353 0.72232zm2.191 15.915q-0.34912 0-0.65009-0.12039-0.28893-0.12039-0.51766-0.33708t-0.36116-0.51766q-0.12039-0.30097-0.12039-0.66213 0-0.36116 0.13243-0.66213 0.13243-0.31301 0.34912-0.5297 0.22874-0.2167 0.5297-0.33708 0.30097-0.13243 0.65009-0.13243 0.33708 0 0.63805 0.12039t0.5297 0.33708q0.22874 0.2167 0.34912 0.51766 0.13243 0.30097 0.13243 0.66213 0 0.36116-0.13243 0.67417-0.12039 0.30097-0.34912 0.5297-0.22874 0.2167-0.5297 0.33708t-0.65009 0.12039z" aria-label="?"/>
   <path transform="rotate(33.182)" d="m18.914-8.2235q0.33708 0.36116 0.54174 0.78252 0.20466 0.40932 0.20466 0.83067 0 0.28893-0.10835 0.54174-0.10835 0.24077-0.30097 0.42136-0.18058 0.18058-0.43339 0.28893-0.25281 0.09631-0.55378 0.09631-0.27689 0-0.5297-0.084271-0.25281-0.09631-0.45747-0.27689-0.20466-0.18058-0.32504-0.44543-0.12039-0.26485-0.12039-0.62601 0-0.54174 0.30097-1.1437 0.31301-0.61397 0.9029-1.1196 0.60194-0.50563 1.4928-0.84271 0.89086-0.33708 2.0466-0.33708 1.1437 0 2.0225 0.33708 0.89086 0.33708 1.4928 0.9029 0.61398 0.55378 0.92698 1.2761 0.31301 0.72232 0.31301 1.5048 0 1.541-1.24 2.8893-0.50563 0.55378-1.1437 1.0594-0.63805 0.50563-1.2039 1.0594-0.55378 0.55378-0.93902 1.2159-0.3732 0.65009-0.3732 1.4928 0 0.16854 0.01204 0.39728 0.02408 0.2167 0.06019 0.45747-0.19262 0.072232-0.42136 0.10835-0.2167 0.024078-0.42136 0.024078-0.19262-0.75844-0.19262-1.4085 0-0.62601 0.1565-1.1316 0.1565-0.50563 0.39728-0.91494 0.25281-0.42136 0.55378-0.77048 0.31301-0.36116 0.62601-0.68621 0.3732-0.40932 0.69825-0.79456 0.32504-0.38524 0.55378-0.83067 0.24077-0.44543 0.3732-0.97514 0.14446-0.54174 0.14446-1.24 0-0.81863-0.19262-1.3845-0.19262-0.57786-0.54174-0.93902-0.34912-0.36116-0.84271-0.51766-0.48155-0.16854-1.0835-0.16854-0.72232 0-1.3604 0.22874t-1.0353 0.72232zm2.191 15.915q-0.34912 0-0.65009-0.12039-0.28893-0.12039-0.51766-0.33708-0.22874-0.2167-0.36116-0.51766-0.12039-0.30097-0.12039-0.66213 0-0.36116 0.13243-0.66213 0.13243-0.31301 0.34912-0.5297 0.22874-0.2167 0.5297-0.33708 0.30097-0.13243 0.65009-0.13243 0.33708 0 0.63805 0.12039t0.5297 0.33708 0.34912 0.51766q0.13243 0.30097 0.13243 0.66213t-0.13243 0.67417q-0.12039 0.30097-0.34912 0.5297-0.22874 0.2167-0.5297 0.33708t-0.65009 0.12039z" aria-label="?"/>
  </g>
  <g transform="rotate(-11.579 9.483 14.063)" stroke-width="2.3" style="paint-order:stroke fill markers">
   <path transform="rotate(-19.55)" d="m14.455 5.7568c-0.078645-0.048912-0.15898-0.096497-0.24176-0.14373-0.66922-0.38181-1.3175-0.6213-1.9447-0.72042-0.62722-0.099124-1.1994-0.1029-1.715-0.0089761-0.50862 0.097901-0.95459 0.27191-1.3387 0.52403-0.37314 0.24912-0.64915 0.53236-0.82812 0.84606-0.008386 0.014699-0.014014 0.029197-0.021899 0.043816-0.05196-0.26732-0.13133-0.5292-0.24225-0.78518-0.20867-0.48155-0.51751-0.90701-0.92683-1.2762-0.40129-0.37721-0.89974-0.67963-1.4937-0.90435-0.58588-0.22472-1.2594-0.33578-2.0219-0.33578-0.77048 0-1.4527 0.11136-2.0466 0.33608-0.59391 0.22472-1.0917 0.50672-1.493 0.8438-0.39326 0.33708-0.6946 0.70851-0.90327 1.1178-0.20065 0.40129-0.30075 0.78286-0.30075 1.144 0 0.24077 0.040524 0.45083 0.12078 0.62739 0.080258 0.17657 0.18819 0.32437 0.32463 0.44476 0.13644 0.12039 0.28955 0.21245 0.4581 0.27666 0.16854 0.056181 0.34406 0.084263 0.52866 0.084263 0.20065 0 0.38509-0.032671 0.55363-0.096878 0.16854-0.072232 0.31355-0.16743 0.43393-0.28782 0.12841-0.12039 0.22878-0.26234 0.30101-0.42285 0.072232-0.16854 0.10808-0.34903 0.10808-0.54165 0-0.2809-0.067162-0.55741-0.2036-0.83028-0.13644-0.2809-0.31833-0.54125-0.54305-0.78203 0.26485-0.32906 0.61108-0.57004 1.0364-0.72253 0.42537-0.15249 0.87905-0.22786 1.3606-0.22786 0.40129 0 0.76174 0.055568 1.0828 0.16793 0.32906 0.10434 0.60918 0.27683 0.84193 0.5176 0.23275 0.24077 0.41352 0.55354 0.54193 0.93878 0.12841 0.37721 0.19262 0.83919 0.19262 1.3849 0 0.4655-0.047284 0.87777-0.14359 1.2389-0.088284 0.35314-0.21277 0.68005-0.37329 0.977-0.15249 0.29695-0.33671 0.57261-0.55341 0.82944-0.2167 0.25683-0.44988 0.5213-0.69868 0.79418-0.20867 0.2167-0.41835 0.44609-0.62702 0.68686-0.20065 0.23275-0.38369 0.48992-0.55223 0.77082-0.16052 0.27288-0.29289 0.57755-0.39723 0.91463-0.10434 0.33708-0.15702 0.71537-0.15702 1.1327 0 0.43339 0.06414 0.9021 0.19255 1.4077 0.13644 0 0.27631-0.0082 0.42078-0.02424 0.15249-0.02408 0.29294-0.06016 0.42136-0.10831-0.024078-0.16052-0.042918-0.31326-0.05897-0.45772-0.00803-0.15249-0.012918-0.28561-0.012918-0.39797 0-0.56181 0.12531-1.0588 0.37411-1.4922 0.25683-0.44142 0.56819-0.84669 0.93738-1.2159 0.37721-0.36919 0.77986-0.72159 1.2052-1.0587 0.42537-0.33708 0.80518-0.69101 1.1423-1.0602 0.64523-0.70161 1.0365-1.4429 1.1781-2.2227 0.038728 0.065385 0.081562 0.12889 0.13042 0.18829 0.11855 0.13232 0.25706 0.24502 0.41739 0.3365 0.17428 0.09943 0.35249 0.1627 0.5307 0.19045 0.18219 0.020782 0.35473 0.00923 0.51896-0.035681 0.17119-0.04093 0.32729-0.11475 0.46958-0.21838 0.14626-0.1106 0.26717-0.248 0.36262-0.41531 0.1392-0.24399 0.21812-0.51869 0.23484-0.82332 0.02069-0.3116-0.0088-0.62735-0.08469-0.94785 0.39311-0.15457 0.81274-0.19261 1.2578-0.11427 0.44503 0.078342 0.87833 0.2364 1.2966 0.47504 0.34855 0.19886 0.6327 0.42676 0.85586 0.68345 0.23411 0.25369 0.39297 0.54244 0.47582 0.86691 0.08284 0.32447 0.08394 0.68603 0.0046 1.0843-0.07539 0.39127-0.2468 0.82445-0.51725 1.2985-0.23068 0.40432-0.47819 0.73777-0.74082 1.0037-0.25168 0.26298-0.51991 0.48452-0.80649 0.6629-0.27961 0.18236-0.57814 0.33258-0.89363 0.44827-0.31549 0.11569-0.64784 0.22974-0.99917 0.34346-0.28863 0.08481-0.58355 0.17945-0.88411 0.28518-0.28962 0.10273-0.57841 0.23497-0.864 0.39544-0.27465 0.15747-0.53926 0.35686-0.79692 0.59794-0.25767 0.24108-0.49017 0.54223-0.69699 0.90472-0.21477 0.37644-0.39302 0.8164-0.53204 1.3192 0.11851 0.06761 0.24587 0.13036 0.3793 0.188 0.14438 0.05465 0.28398 0.09228 0.41937 0.11409 0.058635-0.15135 0.11576-0.29347 0.1734-0.42691 0.068595-0.13643 0.1309-0.2529 0.18658-0.3505 0.2784-0.48797 0.63316-0.85886 1.064-1.112 0.44182-0.25614 0.91396-0.45274 1.4176-0.59046 0.51059-0.13374 1.0351-0.24206 1.5716-0.32405 0.53651-0.08199 1.043-0.20006 1.5187-0.35368 0.96934-0.30918 1.7089-0.80146 2.224-1.4724 0.02874 0.0059 0.05636 0.01339 0.08536 0.01733 0.17356 0.02929 0.34675 0.02413 0.51823-0.01558 0.17787-0.04458 0.34449-0.12577 0.49778-0.24241 0.22354-0.1701 0.40232-0.3922 0.53686-0.66602 0.14092-0.27868 0.23749-0.57991 0.29302-0.90455 0.42225 0.01151 0.82313 0.13983 1.2021 0.386 0.37893 0.24617 0.71524 0.56026 1.0068 0.94348 0.243 0.31935 0.41644 0.64166 0.52142 0.96518 0.11623 0.32505 0.14999 0.65304 0.09932 0.98406-0.05067 0.33102-0.19009 0.66418-0.41891 0.99965-0.22243 0.33061-0.55266 0.6615-0.98698 0.99198-0.37045 0.28188-0.72764 0.49428-1.0734 0.63634-0.33449 0.14358-0.66953 0.24112-1.003 0.2932-0.32866 0.05847-0.66041 0.07937-0.99602 0.06244-0.3356-0.01693-0.68642-0.04264-1.0542-0.0754-0.29881-0.03484-0.60695-0.06146-0.92492-0.08172-0.30672-0.01874-0.62274-0.01091-0.94834 0.02506-0.31436 0.0375-0.63829 0.11694-0.96973 0.23803-0.33144 0.12109-0.66332 0.30747-0.99544 0.56019-0.3449 0.26244-0.68015 0.59796-1.0048 1.0063 0.08262 0.10858 0.17549 0.21644 0.27575 0.32169 0.1115 0.10677 0.22513 0.19693 0.34121 0.26996 0.11316-0.11636 0.22128-0.22505 0.32652-0.32531 0.11649-0.09873 0.21981-0.18329 0.30922-0.25133 0.44709-0.3402 0.91805-0.5421 1.4136-0.60654 0.50681-0.06292 1.0204-0.05876 1.5378 0.01148 0.52222 0.07663 1.0445 0.18199 1.5704 0.31639s1.0378 0.22336 1.5357 0.26805c1.2159 0.11354 2.2331-0.14118 3.0507-0.76326 0.41516-0.3159 0.75137-0.70173 1.0082-1.1594 0.25686-0.45766 0.4076-0.96106 0.45355-1.5104 0.05719-0.54777-0.0041-1.1252-0.18491-1.734-0.17597-0.60234-0.49408-1.2071-0.95578-1.8139-0.46656-0.61315-0.96975-1.0877-1.5082-1.4243-0.53848-0.33656-1.0634-0.56426-1.5747-0.67949-0.44895-0.096497-0.87444-0.11265-1.2807-0.059305-0.03023-0.14571-0.069571-0.29027-0.11765-0.43612-0.16162-0.5265-0.44558-1.0347-0.85008-1.5242-0.34783-0.42483-0.79638-0.80875-1.3469-1.1511zm-5.6623 13.271c-0.75181-0.64388-3.2785-1.775-5.5704-1.5023-0.23112 0.0275-0.44956 0.04382-0.6502 0.1321-0.20065 0.08026-0.37571 0.19366-0.5282 0.33812-0.14446 0.14446-0.26161 0.32156-0.34989 0.53023-0.088284 0.20065-0.13255 0.42072-0.13255 0.6615s0.040425 0.46091 0.12068 0.66156c0.088284 0.20065 0.20743 0.37409 0.35992 0.51855 0.15249 0.14446 0.3256 0.25553 0.51822 0.33579 0.20065 0.08026 0.4175 0.12819 0.65014 0.12112 3.1702-0.09626 3.5571 1.1964 4.5279 1.2903 0.21369 0.02901 0.42425 0.01524 0.63253-0.04239 0.21952-0.0561 0.42492-0.15723 0.61653-0.30303s0.34074-0.31408 0.44696-0.50584c0.11108-0.18537 0.17704-0.38246 0.19967-0.5913 0.022626-0.20883 0.00685-0.41791-0.050779-0.62619-0.11253-0.4067-0.40104-0.80246-0.79058-1.0182z" fill="#000"/>
  </g>
 </g>
</svg>
