<?xml version="1.0" encoding="UTF-8" standalone="no"?>
<svg
   enable-background="new 0 0 24 24"
   height="30"
   viewBox="0 0 30 30"
   width="30"
   fill="#e8eaed"
   version="1.1"
   id="svg1"
   sodipodi:docname="logo.oroginal.svg"
   inkscape:version="1.3.2 (091e20e, 2023-11-25, custom)"
   xmlns:inkscape="http://www.inkscape.org/namespaces/inkscape"
   xmlns:sodipodi="http://sodipodi.sourceforge.net/DTD/sodipodi-0.dtd"
   xmlns="http://www.w3.org/2000/svg"
   xmlns:svg="http://www.w3.org/2000/svg">
  <defs
     id="defs1" />
  <sodipodi:namedview
     id="namedview1"
     pagecolor="#505050"
     bordercolor="#ffffff"
     borderopacity="1"
     inkscape:showpageshadow="0"
     inkscape:pageopacity="0"
     inkscape:pagecheckerboard="1"
     inkscape:deskcolor="#d1d1d1"
     inkscape:zoom="5.833631"
     inkscape:cx="-11.656548"
     inkscape:cy="-1.8856181"
     inkscape:window-width="1920"
     inkscape:window-height="1002"
     inkscape:window-x="-8"
     inkscape:window-y="-8"
     inkscape:window-maximized="1"
     inkscape:current-layer="g3" />
  <g
     id="g3"
     transform="translate(3.2628885,4.1285252)">
    <ellipse
       style="fill:#1e96d7;fill-opacity:1;stroke:none;stroke-width:0;stroke-dasharray:none;paint-order:stroke fill markers"
       id="path1"
       cx="12"
       cy="12"
       rx="11.212121"
       ry="11.272727" />
    <g
       id="g1"
       transform="rotate(-11.579114,9.4830243,14.062655)"
       style="stroke:#1e96d7;stroke-width:2.3;stroke-dasharray:none;stroke-opacity:1;paint-order:stroke fill markers">
      <path
         style="font-weight:bold;font-size:24.6553px;line-height:1.25;font-family:'Javanese Text';-inkscape-font-specification:'Javanese Text';letter-spacing:0px;word-spacing:0px;fill:#000000"
         d="m 1.0190565,4.9094403 q 0.3370842,0.3611617 0.5417425,0.7825169 0.2046582,0.4093165 0.2046582,0.8306717 0,0.2889293 -0.1083485,0.5417425 -0.1083485,0.2407744 -0.300968,0.4213552 -0.1805808,0.1805808 -0.43339395,0.2889293 -0.25281313,0.09631 -0.55378115,0.09631 -0.27689058,0 -0.52970372,-0.084271 Q -0.41355125,7.6903848 -0.61820951,7.509804 -0.82286776,7.3292232 -0.94325497,7.0643714 -1.0636422,6.7995195 -1.0636422,6.4383579 q 0,-0.5417425 0.30096805,-1.1436785 Q -0.44966741,4.6807046 0.1402299,4.1750784 0.74216594,3.6694521 1.6330313,3.3323679 2.5238966,2.9952837 3.6796138,2.9952837 q 1.1436785,0 2.0225051,0.3370842 0.8908653,0.3370842 1.4928014,0.9029041 0.6139747,0.5537811 0.9269815,1.2761044 0.3130067,0.7223232 0.3130067,1.5048401 0,1.5409562 -1.2399882,2.889293 -0.5056263,0.5537815 -1.1436785,1.0594075 -0.6380522,0.505626 -1.2038721,1.059407 -0.5537811,0.553781 -0.9390202,1.215911 -0.3732003,0.650091 -0.3732003,1.492801 0,0.168543 0.012039,0.397278 0.024077,0.216697 0.060194,0.457472 -0.1926195,0.07223 -0.4213552,0.108348 -0.216697,0.02408 -0.4213553,0.02408 -0.1926195,-0.75844 -0.1926195,-1.408531 0,-0.626013 0.1565034,-1.131639 Q 2.8850582,12.674415 3.1258327,12.265099 3.3786458,11.843743 3.6796138,11.494621 3.9926206,11.133459 4.3056273,10.808414 4.6788276,10.399097 5.0038731,10.013858 5.3289186,9.6286189 5.5576543,9.1831862 5.7984287,8.7377535 5.9308546,8.2080498 6.0753192,7.6663074 6.0753192,6.9680616 q 0,-0.818633 -0.1926195,-1.3844529 Q 5.6900802,5.0057501 5.3409573,4.6445885 4.9918344,4.2834269 4.4982468,4.1269235 4.016698,3.9583814 3.414762,3.9583814 q -0.7223233,0 -1.3603755,0.2287357 -0.6380522,0.2287357 -1.03533,0.7223232 z M 3.2101037,20.824629 q -0.3491229,0 -0.6500909,-0.120387 Q 2.2710835,20.583855 2.0423478,20.367158 1.8136121,20.150461 1.6811862,19.849493 1.560799,19.548525 1.560799,19.187363 q 0,-0.361161 0.1324259,-0.662129 0.1324259,-0.313007 0.3491229,-0.529704 0.2287357,-0.216697 0.5297037,-0.337084 0.300968,-0.132426 0.6500909,-0.132426 0.3370842,0 0.6380522,0.120387 0.300968,0.120387 0.5297037,0.337084 0.2287357,0.216697 0.3491229,0.517665 0.132426,0.300968 0.132426,0.66213 0,0.361161 -0.132426,0.674168 -0.1203872,0.300968 -0.3491229,0.529704 -0.2287357,0.216697 -0.5297037,0.337084 -0.300968,0.120387 -0.6500909,0.120387 z"
         id="text1"
         transform="rotate(-19.550237)"
         aria-label="?" />
      <path
         style="font-weight:bold;font-size:24.6553px;line-height:1.25;font-family:'Javanese Text';-inkscape-font-specification:'Javanese Text';letter-spacing:0px;word-spacing:0px;fill:#000000"
         d="m 12.465566,-0.25362558 q 0.337084,0.36116163 0.541742,0.78251685 0.204658,0.40931651 0.204658,0.83067173 0,0.2889293 -0.108348,0.5417424 -0.108349,0.2407745 -0.300968,0.4213553 -0.180581,0.1805808 -0.433394,0.2889293 -0.252813,0.09631 -0.553781,0.09631 -0.276891,0 -0.529704,-0.084271 Q 11.032958,2.5273189 10.8283,2.3467381 10.623641,2.1661573 10.503254,1.9013054 10.382867,1.6364536 10.382867,1.275292 q 0,-0.54174247 0.300968,-1.14367851 0.313007,-0.61397476 0.902904,-1.11960103 0.601936,-0.50562626 1.492801,-0.84271046 0.890866,-0.3370842 2.046583,-0.3370842 1.143678,0 2.022505,0.3370842 0.890865,0.3370842 1.492801,0.90290406 0.613975,0.55378116 0.926982,1.2761044 0.313007,0.72232324 0.313007,1.50484014 0,1.5409562 -1.239989,2.8892929 -0.505626,0.5537812 -1.143678,1.0594075 -0.638052,0.5056262 -1.203872,1.0594074 -0.553781,0.5537812 -0.93902,1.2159108 -0.373201,0.6500909 -0.373201,1.4928014 0,0.1685421 0.01204,0.3972778 0.02408,0.2166966 0.06019,0.4574716 -0.19262,0.07223 -0.421356,0.108348 -0.216697,0.02408 -0.421355,0.02408 -0.192619,-0.7584397 -0.192619,-1.4085307 0,-0.6260134 0.156503,-1.1316397 0.156503,-0.5056263 0.397278,-0.9149428 0.252813,-0.4213552 0.553781,-0.7704781 0.313007,-0.3611616 0.626013,-0.6862071 0.373201,-0.4093165 0.698246,-0.7945556 0.325046,-0.385239 0.553781,-0.8306717 0.240775,-0.4454327 0.373201,-0.9751364 0.144464,-0.5417424 0.144464,-1.2399882 0,-0.81863304 -0.192619,-1.38445291 -0.19262,-0.5778586 -0.541743,-0.93902022 -0.349123,-0.36116163 -0.84271,-0.51766497 -0.481549,-0.1685421 -1.083485,-0.1685421 -0.722323,0 -1.360375,0.22873568 -0.638053,0.22873569 -1.03533,0.72232324 z M 14.656613,15.661563 q -0.349123,0 -0.650091,-0.120387 -0.288929,-0.120387 -0.517665,-0.337084 -0.228736,-0.216697 -0.361162,-0.517665 -0.120387,-0.300968 -0.120387,-0.66213 0,-0.361161 0.132426,-0.662129 0.132426,-0.313007 0.349123,-0.529704 0.228736,-0.216697 0.529704,-0.337084 0.300968,-0.132426 0.650091,-0.132426 0.337084,0 0.638052,0.120387 0.300968,0.120387 0.529703,0.337084 0.228736,0.216697 0.349123,0.517665 0.132426,0.300968 0.132426,0.66213 0,0.361161 -0.132426,0.674168 -0.120387,0.300968 -0.349123,0.529704 -0.228735,0.216697 -0.529703,0.337084 -0.300968,0.120387 -0.650091,0.120387 z"
         id="text1-3"
         transform="rotate(10.155931)"
         aria-label="?" />
      <path
         style="font-weight:bold;font-size:24.6553px;line-height:1.25;font-family:'Javanese Text';-inkscape-font-specification:'Javanese Text';letter-spacing:0px;word-spacing:0px;fill:#000000"
         d="m 18.914417,-8.2235119 q 0.337084,0.3611616 0.541743,0.7825169 0.204658,0.4093165 0.204658,0.8306717 0,0.2889293 -0.108349,0.5417424 -0.108348,0.2407745 -0.300968,0.4213553 -0.18058,0.1805808 -0.433394,0.2889293 -0.252813,0.09631 -0.553781,0.09631 -0.27689,0 -0.529703,-0.084271 -0.252814,-0.09631 -0.457472,-0.2768906 -0.204658,-0.1805808 -0.325045,-0.4454327 -0.120387,-0.2648518 -0.120387,-0.6260134 0,-0.5417425 0.300968,-1.1436785 0.313006,-0.6139748 0.902904,-1.119601 0.601936,-0.5056263 1.492801,-0.8427105 0.890865,-0.3370837 2.046583,-0.3370837 1.143678,0 2.022505,0.3370837 0.890865,0.3370842 1.492801,0.9029041 0.613975,0.5537811 0.926981,1.2761044 0.313007,0.7223232 0.313007,1.5048401 0,1.5409562 -1.239988,2.8892929 -0.505626,0.5537812 -1.143678,1.0594075 -0.638053,0.5056262 -1.203873,1.0594074 -0.553781,0.55378115 -0.93902,1.2159108 -0.3732,0.65009092 -0.3732,1.4928014 0,0.1685421 0.01204,0.3972778 0.02408,0.2166969 0.06019,0.4574713 -0.192619,0.072232 -0.421355,0.1083485 -0.216697,0.024078 -0.421355,0.024078 -0.19262,-0.7584394 -0.19262,-1.4085304 0,-0.62601344 0.156504,-1.13163971 0.156503,-0.50562627 0.397277,-0.91494278 0.252813,-0.42135521 0.553782,-0.77047811 0.313006,-0.3611616 0.626013,-0.6862071 0.3732,-0.4093165 0.698246,-0.7945556 0.325045,-0.385239 0.553781,-0.8306717 0.240774,-0.4454327 0.3732,-0.9751364 0.144465,-0.5417424 0.144465,-1.2399882 0,-0.818633 -0.19262,-1.3844529 -0.192619,-0.5778586 -0.541742,-0.9390202 -0.349123,-0.3611617 -0.84271,-0.517665 -0.481549,-0.1685421 -1.083485,-0.1685421 -0.722324,0 -1.360376,0.2287357 -0.638052,0.2287357 -1.03533,0.7223232 z M 21.105464,7.691677 q -0.349122,0 -0.650091,-0.1203872 Q 20.166444,7.4509026 19.937708,7.2342056 19.708973,7.0175086 19.576547,6.7165406 19.45616,6.4155726 19.45616,6.054411 q 0,-0.3611617 0.132426,-0.6621297 0.132426,-0.3130067 0.349122,-0.5297037 0.228736,-0.216697 0.529704,-0.3370842 0.300968,-0.1324259 0.650091,-0.1324259 0.337084,0 0.638052,0.1203872 0.300968,0.1203872 0.529704,0.3370842 0.228736,0.216697 0.349123,0.517665 0.132426,0.300968 0.132426,0.6621296 0,0.3611616 -0.132426,0.6741684 -0.120387,0.300968 -0.349123,0.5297037 -0.228736,0.216697 -0.529704,0.3370842 -0.300968,0.1203872 -0.650091,0.1203872 z"
         id="text1-39"
         transform="rotate(33.181564)"
         aria-label="?" />
    </g>
    <g
       id="g2"
       transform="rotate(-11.579114,9.4830243,14.062655)"
       style="stroke:none;stroke-width:2.3;stroke-dasharray:none;stroke-opacity:1;paint-order:stroke fill markers">
      <path
         id="text1-1"
         style="font-weight:bold;font-size:24.6553px;line-height:1.25;font-family:'Javanese Text';-inkscape-font-specification:'Javanese Text';letter-spacing:0px;word-spacing:0px;fill:#000000"
         d="M 14.454509,5.7568186 C 14.375864,5.7079066 14.295529,5.6603214 14.212748,5.6130921 13.543529,5.2312805 12.895265,4.9917922 12.268045,4.8926679 11.640827,4.7935439 11.068673,4.7897684 10.553078,4.8836918 10.044455,4.9815925 9.5984899,5.1556035 9.2144052,5.4077191 8.841269,5.656841 8.5652589,5.9400815 8.3862846,6.2537783 8.3778986,6.2684769 8.3722701,6.2829751 8.3643856,6.2975947 8.3124259,6.030276 8.2330588,5.7683986 8.1221344,5.5124192 7.9134634,5.0308708 7.6046212,4.6054113 7.1953052,4.2362242 6.7940148,3.8590113 6.2955641,3.5565935 5.7016545,3.3318709 5.1157707,3.1071484 4.4422557,2.9960923 3.6798041,2.9960923 2.9093267,2.9960923 2.2271443,3.1074485 1.6332346,3.332171 1.039325,3.5568936 0.5415161,3.8388897 0.14022581,4.1759736 -0.25303867,4.5130574 -0.55437034,4.8844867 -0.76304129,5.2938028 -0.96368646,5.695093 -1.0637918,6.0766641 -1.0637918,6.4378254 c 0,0.2407741 0.040524,0.4508256 0.12078191,0.6273934 0.0802581,0.1765677 0.18819153,0.3243726 0.32463023,0.4447597 0.1364387,0.120387 0.2895531,0.212454 0.45809501,0.2766607 0.16854193,0.056181 0.3440641,0.084263 0.52865764,0.084263 0.20064514,0 0.38509129,-0.032671 0.5536332,-0.096878 C 1.0905481,7.7017919 1.2355537,7.6065952 1.3559408,7.4862081 1.4843536,7.3658211 1.5847194,7.2238704 1.6569517,7.0633543 1.729184,6.8948123 1.7650343,6.7143214 1.7650343,6.5217021 c 0,-0.2809032 -0.067162,-0.557406 -0.2036005,-0.8302834 C 1.4249951,5.4105156 1.2431024,5.1501676 1.0183799,4.9093934 1.2832315,4.5803354 1.6294555,4.3393568 2.0548232,4.1868665 2.480191,4.0343762 2.9338693,3.9590068 3.4154177,3.9590068 c 0.4012902,0 0.7617417,0.055568 1.0827739,0.1679295 0.329058,0.1043355 0.6091839,0.276827 0.8419322,0.5176012 0.2327484,0.2407742 0.4135182,0.5535445 0.541931,0.9387832 0.1284129,0.3772128 0.1926186,0.8391898 0.1926186,1.3849446 0,0.4654967 -0.047284,0.8777741 -0.1435939,1.2389354 C 5.8427957,8.5603361 5.7183066,8.8872489 5.5577905,9.1842038 5.4053002,9.4811586 5.2210816,9.7568132 5.0043848,10.013639 4.787688,10.270465 4.5545085,10.534941 4.3057085,10.807819 4.0970376,11.024515 3.8873598,11.253909 3.6786888,11.494683 3.4780437,11.727431 3.2949993,11.9846 3.1264574,12.265504 2.9659412,12.538381 2.8335665,12.84305 2.7292316,13.180135 2.6248961,13.517219 2.5722114,13.895508 2.5722114,14.31285 c 0,0.433393 0.06414,0.902095 0.1925527,1.407722 0.1364387,0 0.2763148,-0.0082 0.4207793,-0.02424 0.1524903,-0.02408 0.2929443,-0.06016 0.4213572,-0.108314 -0.024078,-0.160517 -0.042918,-0.313261 -0.05897,-0.457725 -0.00803,-0.15249 -0.012918,-0.285608 -0.012918,-0.39797 0,-0.561806 0.125308,-1.058775 0.374108,-1.492168 C 4.1659465,12.798734 4.477315,12.393467 4.8465021,12.02428 5.223715,11.655093 5.626364,11.30269 6.0517317,10.965607 6.4770994,10.628523 6.8569095,10.274599 7.1939934,9.9054112 7.8392279,9.2037969 8.2304989,8.4625225 8.3721061,7.6826748 c 0.038728,0.065385 0.081562,0.1288859 0.130425,0.1882893 0.1185513,0.1323185 0.2570578,0.245025 0.4173919,0.3365009 0.174276,0.09943 0.352486,0.1626982 0.5306955,0.190451 0.1821866,0.020782 0.3547317,0.00923 0.5189555,-0.035681 0.171194,-0.04093 0.327291,-0.1147505 0.469575,-0.2183763 0.14626,-0.1105971 0.267168,-0.2480017 0.362621,-0.4153067 0.139202,-0.2439864 0.218124,-0.518694 0.234842,-0.8233218 0.02069,-0.3115988 -0.0088,-0.6273525 -0.08469,-0.9478454 0.393109,-0.1545651 0.812736,-0.192613 1.257768,-0.1142706 0.445032,0.078342 0.878333,0.2364033 1.296596,0.4750355 0.348552,0.1988603 0.632695,0.4267636 0.855856,0.6834464 0.234108,0.2536888 0.392973,0.5424405 0.475817,0.8669107 0.08284,0.3244702 0.08394,0.686032 0.0046,1.0842774 -0.07539,0.391274 -0.246796,0.8244524 -0.517246,1.2984838 -0.230678,0.40432 -0.478191,0.737772 -0.740817,1.003742 -0.251678,0.262977 -0.519911,0.484515 -0.806489,0.662899 -0.279606,0.182362 -0.578139,0.332584 -0.893628,0.448273 -0.315488,0.115689 -0.647844,0.229738 -0.999172,0.34346 -0.288631,0.08481 -0.583549,0.179452 -0.884112,0.285175 -0.2896154,0.10273 -0.5784052,0.23497 -0.8639991,0.395435 -0.2746462,0.157471 -0.5392563,0.356864 -0.7969222,0.597944 -0.257666,0.241081 -0.4901714,0.542228 -0.696986,0.904722 -0.2147692,0.376436 -0.3930163,0.816397 -0.532044,1.319207 0.1185075,0.06761 0.2458668,0.130358 0.3793008,0.188004 0.1443821,0.05465 0.2839752,0.09228 0.4193746,0.114094 0.058635,-0.151351 0.115757,-0.293474 0.173403,-0.426908 0.068595,-0.136427 0.1308997,-0.252903 0.1865806,-0.350498 0.2784044,-0.487973 0.6331592,-0.858863 1.0640309,-1.112005 0.4418195,-0.256137 0.9139614,-0.45274 1.4175804,-0.590456 0.510591,-0.13374 1.035055,-0.242062 1.571562,-0.324054 0.536508,-0.08199 1.042989,-0.200057 1.518724,-0.353682 0.96934,-0.309185 1.708925,-0.801457 2.224033,-1.472419 0.02874,0.0059 0.05636,0.01339 0.08536,0.01733 0.173565,0.02929 0.346747,0.02413 0.518227,-0.01558 0.177868,-0.04458 0.344492,-0.125772 0.497781,-0.242412 0.223545,-0.1701 0.402316,-0.392204 0.536855,-0.666023 0.140925,-0.27868 0.237494,-0.579912 0.293024,-0.904549 0.422248,0.01151 0.823126,0.139827 1.202059,0.385998 0.378934,0.246172 0.715241,0.560255 1.006842,0.943477 0.243,0.31935 0.41644,0.641665 0.521422,0.965185 0.116229,0.325048 0.149989,0.65304 0.09932,0.984064 -0.05067,0.331023 -0.190092,0.664176 -0.418908,0.999648 -0.22243,0.330613 -0.552662,0.661497 -0.986979,0.991978 -0.370446,0.28188 -0.727639,0.494279 -1.073374,0.636335 -0.334489,0.143583 -0.669528,0.241125 -1.003047,0.293205 -0.32866,0.05847 -0.660411,0.07937 -0.996015,0.06244 -0.335605,-0.01693 -0.686417,-0.04264 -1.054235,-0.0754 -0.29881,-0.03484 -0.606952,-0.06146 -0.924922,-0.08172 -0.306724,-0.01874 -0.622738,-0.01091 -0.948343,0.02506 -0.314358,0.0375 -0.638292,0.116944 -0.969726,0.238033 -0.331435,0.121089 -0.66332,0.30747 -0.995444,0.56019 -0.344899,0.26244 -0.680151,0.597957 -1.004773,1.006329 0.08262,0.108579 0.175493,0.216442 0.275747,0.321689 0.111501,0.106773 0.225132,0.196926 0.341214,0.269958 0.113162,-0.116358 0.221275,-0.225051 0.32652,-0.325307 0.116493,-0.09873 0.219806,-0.183291 0.309225,-0.251331 0.447091,-0.3402 0.918049,-0.542102 1.413607,-0.606545 0.506806,-0.06292 1.020404,-0.05876 1.537766,0.01148 0.522223,0.07663 1.044546,0.181994 1.570381,0.316386 0.525835,0.134392 1.037763,0.223358 1.535685,0.268052 1.215926,0.113542 2.233136,-0.141185 3.050673,-0.763265 0.415156,-0.3159 0.751369,-0.701733 1.00823,-1.159396 0.256861,-0.457662 0.407603,-0.961064 0.453546,-1.510361 0.05719,-0.547771 -0.0041,-1.125232 -0.184911,-1.733951 C 21.912574,12.242857 21.594462,11.638067 21.132762,11.031301 20.666201,10.418147 20.163012,9.9436071 19.624536,9.607048 19.086059,9.2704892 18.561099,9.042784 18.049845,8.9275533 17.600893,8.8310561 17.175405,8.8149017 16.769131,8.8682486 16.738901,8.7225394 16.69956,8.5779778 16.651481,8.4321261 16.489857,7.905627 16.205899,7.3974501 15.801404,6.9079479 15.45357,6.4831133 15.005022,6.0992024 14.454509,5.7568186 Z M 8.7921825,19.02763 c -0.7518076,-0.643881 -3.27848,-1.774978 -5.5703902,-1.502315 -0.2311189,0.0275 -0.4495583,0.04382 -0.6502034,0.132104 -0.2006451,0.08026 -0.3757133,0.193658 -0.5282036,0.338123 -0.1444645,0.144464 -0.2616066,0.321563 -0.3498904,0.530234 -0.088284,0.200646 -0.1325461,0.420724 -0.1325461,0.661498 0,0.240774 0.040425,0.460913 0.1206832,0.661558 0.088284,0.200646 0.2074323,0.374089 0.3599226,0.518553 0.1524904,0.144465 0.3255976,0.25553 0.5182169,0.335788 0.2006451,0.08026 0.4175003,0.128188 0.6501414,0.121124 3.1702322,-0.09626 3.5570616,1.196444 4.5279387,1.290298 0.2136934,0.02901 0.4242509,0.01524 0.6325262,-0.04239 0.2195224,-0.0561 0.4249211,-0.157231 0.6165315,-0.303031 0.1916104,-0.1458 0.3407429,-0.31408 0.4469582,-0.505837 0.1110754,-0.18537 0.1770439,-0.382463 0.1996701,-0.591297 0.022626,-0.208833 0.00685,-0.417911 -0.050779,-0.626186 -0.1125299,-0.4067 -0.4010438,-0.802461 -0.7905761,-1.018224 z"
         transform="rotate(-19.550237)"
         sodipodi:nodetypes="sssccscsccssccssscscccsccsscscsccscccssccccsccscccscccsccsscscsccscccssccccsccsccccsccsscscsccscccssccccsccscssccssccccscscccscscsccscssc" />
    </g>
  </g>
</svg>
